#N canvas 186 179 429 300 10;
#X obj 90 253 dac~;
#X obj 90 229 vol~;
#X floatatom 113 205 5 0 0 0 - - -;
#X obj 90 168 blosc~ pulse;
#X floatatom 90 138 5 0 0 0 - - -;
#X text 69 116 one-sided impulse;
#X obj 265 253 dac~;
#X obj 265 229 vol~;
#X floatatom 288 205 5 0 0 0 - - -;
#X floatatom 265 138 5 0 0 0 - - -;
#X text 244 116 two-sided impulse;
#X obj 265 168 blosc~ pulse2;
#X obj 462 167 ead~ 0 0;
#X obj 446 235 *~;
#X obj 462 96 metro;
#X obj 398 200 osc~;
#X floatatom 398 168 5 0 0 0 - - -;
#X floatatom 492 68 5 0 0 0 - - -;
#X floatatom 487 120 5 0 0 0 - - -;
#X floatatom 513 142 5 0 0 0 - - -;
#X obj 435 298 dac~;
#X text 559 127 60db attack and decay time;
#X obj 427 132 bng 15 250 50 0 empty empty empty 0 -6 0 8 -262144 -1
-1;
#X msg 415 68 stop;
#X text 558 107 exponential attack/decay envelope;
#X obj 446 268 vol~;
#X floatatom 474 249 5 0 0 0 - - -;
#X obj 622 175 table t 5000;
#X obj 622 232 tabwrite~ t;
#X obj 622 208 bng 15 250 50 0 empty empty empty 0 -6 0 8 -262144 -1
-1;
#X obj 462 69 tgl 15 0 empty empty empty 0 -6 0 8 -262144 -1 -1 0 1
;
#X obj 865 257 *~;
#X obj 881 70 metro;
#X obj 802 233 osc~;
#X floatatom 802 201 5 0 0 0 - - -;
#X floatatom 911 42 5 0 0 0 - - -;
#X floatatom 985 147 5 0 0 0 - - -;
#X floatatom 984 169 5 0 0 0 - - -;
#X obj 857 307 dac~;
#X msg 834 42 stop;
#X msg 802 154 start;
#X msg 847 153 stop;
#X obj 881 107 del;
#X floatatom 935 80 5 0 0 0 - - -;
#X obj 881 227 eadsr~ 0 0;
#X text 967 111 exponential attack/decay/sustain/release envelope;
#X text 1041 155 60db attack and decay time;
#X floatatom 985 190 5 0 0 0 - - -;
#X floatatom 985 210 5 0 0 0 - - -;
#X text 1040 189 sustain level;
#X obj 864 283 vol~;
#X floatatom 908 268 5 0 0 0 - - -;
#X obj 1119 258 table t 10000;
#X obj 1119 297 tabwrite~ t;
#X obj 1119 277 bng 15 250 50 0 empty empty empty 0 -6 0 8 -262144
-1 -1;
#X obj 879 43 tgl 15 0 empty empty empty 0 -6 0 8 -262144 -1 -1 0 1
;
#X obj 1038 306 del;
#X floatatom 1052 255 5 0 0 0 - - -;
#X text 1041 212 60db release time;
#X obj 111 524 *~;
#X obj 127 337 metro;
#X obj 127 309 bng 15 250 50 0 empty empty empty 0 -6 0 8 -262144 -1
-1;
#X obj 63 489 osc~;
#X floatatom 63 457 5 0 0 0 - - -;
#X floatatom 157 309 5 0 0 0 - - -;
#X floatatom 152 409 5 0 0 0 - - -;
#X floatatom 179 431 5 0 0 0 - - -;
#X obj 99 562 dac~;
#X msg 80 309 stop;
#X msg 48 421 start;
#X msg 93 420 stop;
#X obj 127 456 ear~ 0 0;
#X obj 127 374 del;
#X floatatom 181 347 5 0 0 0 - - -;
#X text 223 396 exponential attack/release envelope;
#X text 224 416 60db attack and release time;
#X msg 607 339 predict 0.5 0.5 \, update 0.25 0.25;
#X msg 607 378 predict -0.0625 0.5625 0.5625 -0.0625 \, update -0.03125
0.28125 0.28125 -0.03125;
#X floatatom 548 464 5 0 0 0 - - -;
#X msg 725 598 mask -1 9 9 -1;
#X obj 591 733 r coef;
#X obj 606 424 s coef;
#X obj 719 791 s coef;
#X msg 725 621 mask 3 -25 150 150 -25 3;
#X msg 740 643 mask -5 49 -245 1225 1225 -245 49 -5;
#X obj 720 493 pack;
#X floatatom 746 462 5 0 0 0 - - -;
#X floatatom 690 450 5 0 0 0 - - -;
#X msg 695 518 coef \$1 \$2;
#X msg 715 574 mask 1 1;
#X msg 752 666 mask 35 -405 2268 -8820 39690 39690 -8820 2268 -405
35;
#X msg 768 700 mask -63 847 -5445 22869 -76230 320166 320166 -76230
22869 -5445 847 -63;
#X msg 769 760 predict 1 0 \, update 0 0.5;
#X obj 560 485 * 187.5;
#X obj 550 795 dwt~ 1;
#X obj 604 797 idwt~ 1;
#X msg 993 830 mask 0 0 0 35 140 -70 28 -5;
#X msg 993 806 mask 7 -45 126 -210 315 63 0 0 0 0;
#X msg 993 782 mask -21 154 -495 924 -1155 1386 231 0 0 0 0 0;
#X obj 550 897 tabsend~ scope;
#N canvas 0 0 450 300 (subpatch) 0;
#X array scope 256 float 0;
#X coords 0 1 255 -1 200 140 1;
#X restore 1242 356 graph;
#X text 585 619 print out coefs;
#X msg 624 638 print;
#X text 839 430 dwt~ performs a discrete wavelet transform;
#X text 839 444 idwt~ performs the inverse transform;
#X text 833 559 mask sets the predict mask \, and uses the corresponding
update mask;
#X text 790 517 coef sets half of a symmetric predict mask;
#X text 767 740 predict and update masks can be specified explicitly
;
#X text 957 761 haar wavelet;
#X msg 1196 643 even \$1;
#X floatatom 1196 621 5 0 0 0 - - -;
#X text 1094 588 even <n> is the order symmetric interpolating biorthogonal
wavelet with n vanishing moments.;
#X obj 649 874 dac~;
#X obj 541 516 osc~ 2;
#X obj 596 829 *~ 0.5;
#X obj 229 504 noise~;
#X obj 303 500 osc~ 9000;
#X obj 296 540 *~ 0.3;
#X obj 670 840 delay~ 500;
#X connect 1 0 0 0;
#X connect 1 0 0 1;
#X connect 2 0 1 1;
#X connect 3 0 1 0;
#X connect 4 0 3 0;
#X connect 7 0 6 0;
#X connect 7 0 6 1;
#X connect 8 0 7 1;
#X connect 9 0 11 0;
#X connect 11 0 7 0;
#X connect 12 0 13 1;
#X connect 12 0 28 0;
#X connect 13 0 25 0;
#X connect 14 0 12 0;
#X connect 15 0 13 0;
#X connect 16 0 15 0;
#X connect 17 0 14 1;
#X connect 18 0 12 1;
#X connect 19 0 12 2;
#X connect 22 0 12 0;
#X connect 23 0 14 0;
#X connect 25 0 20 0;
#X connect 25 0 20 1;
#X connect 26 0 25 1;
#X connect 29 0 28 0;
#X connect 29 0 12 0;
#X connect 30 0 14 0;
#X connect 31 0 50 0;
#X connect 32 0 40 0;
#X connect 32 0 42 0;
#X connect 33 0 31 0;
#X connect 34 0 33 0;
#X connect 35 0 32 1;
#X connect 36 0 44 1;
#X connect 37 0 44 2;
#X connect 39 0 32 0;
#X connect 40 0 44 0;
#X connect 41 0 44 0;
#X connect 42 0 41 0;
#X connect 43 0 42 1;
#X connect 44 0 31 1;
#X connect 44 0 53 0;
#X connect 47 0 44 3;
#X connect 48 0 44 4;
#X connect 50 0 38 1;
#X connect 50 0 38 0;
#X connect 51 0 50 1;
#X connect 54 0 53 0;
#X connect 54 0 56 0;
#X connect 54 0 40 0;
#X connect 55 0 32 0;
#X connect 56 0 41 0;
#X connect 57 0 56 1;
#X connect 59 0 67 0;
#X connect 59 0 67 1;
#X connect 60 0 69 0;
#X connect 60 0 72 0;
#X connect 61 0 60 0;
#X connect 62 0 59 0;
#X connect 63 0 62 0;
#X connect 64 0 60 1;
#X connect 65 0 71 1;
#X connect 66 0 71 2;
#X connect 68 0 60 0;
#X connect 69 0 71 0;
#X connect 70 0 71 0;
#X connect 71 0 59 1;
#X connect 72 0 70 0;
#X connect 73 0 72 1;
#X connect 76 0 81 0;
#X connect 77 0 81 0;
#X connect 78 0 93 0;
#X connect 79 0 82 0;
#X connect 80 0 95 0;
#X connect 80 0 94 0;
#X connect 83 0 82 0;
#X connect 84 0 82 0;
#X connect 85 0 88 0;
#X connect 86 0 85 1;
#X connect 87 0 85 0;
#X connect 88 0 82 0;
#X connect 89 0 82 0;
#X connect 90 0 82 0;
#X connect 91 0 82 0;
#X connect 92 0 82 0;
#X connect 93 0 113 0;
#X connect 94 0 99 0;
#X connect 94 0 114 0;
#X connect 96 0 82 0;
#X connect 97 0 82 0;
#X connect 98 0 82 0;
#X connect 102 0 82 0;
#X connect 109 0 82 0;
#X connect 110 0 109 0;
#X connect 113 0 94 0;
#X connect 114 0 118 0;
#X connect 115 0 59 0;
#X connect 116 0 117 0;
#X connect 117 0 59 0;
